# xmcd
#
# Track frame offsets: 
#        150
#        22087
#        45337
#        70677
#        86990
#        102703
#        120185
#        151250
#        188395
#        219695
#
# Disc length: 3175 seconds
#
# Revision: 1
# Processed by: cddbd v1.5.2PL0 Copyright (c) Steve Scherf et al.
# Submitted via: ExactAudioCopy v0.99pb5
#
DISCID=7e0c650a
DTITLE=Oscar Peterson - In Russia  CD 2
DYEAR=1974
DGENRE=Jazz
TTITLE0=Take The 'A' Train
TTITLE1=Summertime
TTITLE2=Just Friends
TTITLE3=Do You Know What It Means To Miss New Orleans
TTITLE4=I Loves You, Porgy
TTITLE5=Georgia On My Mind
TTITLE6=Li'l Darlin'
TTITLE7=Watch What Happens
TTITLE8=Hallelujah Trail
TTITLE9=Someone To Watch Over Me
EXTD=YEAR: 1974
EXTT0=
EXTT1=
EXTT2=
EXTT3=
EXTT4=
EXTT5=
EXTT6=
EXTT7=
EXTT8=
EXTT9=
PLAYORDER=
